<?xml version="1.0" encoding="utf-8"?>
<!-- Generator: Adobe Illustrator 24.0.3, SVG Export Plug-In . SVG Version: 6.00 Build 0)  -->
<svg version="1.1" id="Layer_1" xmlns="http://www.w3.org/2000/svg" xmlns:xlink="http://www.w3.org/1999/xlink" x="0px" y="0px"
	 viewBox="0 0 141 97" style="enable-background:new 0 0 141 97;" xml:space="preserve">
<style type="text/css">
	.st0{fill:#FFFFFF;}
</style>
<g>
	<g>
		<path class="st0" d="M26,75.9l-1.3-0.4c0.6-1.8,0.5-3.2-1.1-4.2c-2.1-1.3-4.2,0.4-5.7,2.7c-1.9,3-1.8,5.3,0.1,6.5
			c1.4,0.9,2.7,0.6,4.3-0.9l0.9,0.9c-2,1.9-4,2.2-6,0.9c-3-1.9-2.5-5.3-0.6-8.2c1.9-2.9,4.7-4.8,7.7-2.9
			C26.3,71.6,26.9,73.4,26,75.9z"/>
		<path class="st0" d="M36.6,83.7c-1.4,3.3-3.8,5.6-7.2,4.1c-3.4-1.4-3.5-4.8-2.1-8s3.8-5.6,7.2-4.1C37.9,77.1,38,80.4,36.6,83.7z
			 M29.9,86.7c2.1,0.9,4-0.3,5.4-3.6s0.9-5.5-1.3-6.4c-2.1-0.9-4,0.2-5.4,3.6C27.3,83.6,27.7,85.8,29.9,86.7z"/>
		<path class="st0" d="M43.5,79.1l-3.1,11.2l5.9,1.6L46,93l-7.3-2l3.4-12.4L43.5,79.1z"/>
		<path class="st0" d="M53.5,81.4l-1.8,11.5l6,0.9L57.6,95l-7.4-1.2l2-12.7L53.5,81.4z"/>
		<path class="st0" d="M70,82.8V84l-6.3-0.2l-0.2,4.3l4.5,0.2v1.2l-4.5-0.2l-0.2,4.9l6.6,0.2v1.2l-8.1-0.3l0.5-12.8L70,82.8z"/>
		<path class="st0" d="M81.5,85.5L80.2,86c-0.6-1.8-1.5-2.8-3.4-2.6c-2.4,0.2-3.1,2.9-2.9,5.6c0.3,3.5,1.8,5.3,4,5.1
			c1.6-0.1,2.5-1.2,2.9-3.3l1.3,0.1c-0.4,2.7-1.8,4.2-4.2,4.4c-3.6,0.3-5.2-2.7-5.5-6.2c-0.3-3.4,0.8-6.7,4.3-7
			C79.1,82,80.7,83.1,81.5,85.5z"/>
		<path class="st0" d="M91.9,79.9l0.2,1.2l-3.8,0.8l2.3,11.4l-1.4,0.3L87,82.2L83.2,83L83,81.8L91.9,79.9z"/>
		<path class="st0" d="M96.2,78.6l3.7,12.3l-1.4,0.4L94.8,79L96.2,78.6z"/>
		<path class="st0" d="M111.2,79.8c1.4,3.3,1.3,6.6-2.1,8s-5.8-0.9-7.2-4.1c-1.4-3.2-1.3-6.6,2.1-8
			C107.4,74.2,109.9,76.5,111.2,79.8z M108.6,86.7c2.1-0.9,2.6-3.1,1.3-6.4c-1.4-3.3-3.3-4.5-5.4-3.6s-2.6,3-1.2,6.3
			C104.6,86.4,106.5,87.6,108.6,86.7z"/>
		<path class="st0" d="M113.1,71.4l10.1,5.2h0.1l-5.4-8.3l1.1-0.7l7,10.8l-1,0.6l-11.7-6.1l0,0l6.2,9.6l-1.1,0.7l-7-10.8L113.1,71.4
			z"/>
	</g>
	<g>
		<g>
			<path class="st0" d="M37.3,6.7l0.4,1.1l-3.6,1.4L38.4,20l-1.3,0.5L32.8,9.8l-3.6,1.4l-0.4-1.1L37.3,6.7z"/>
			<path class="st0" d="M43.3,4.9l1.3,5.3l6-1.5l-1.3-5.3l1.4-0.3l3,12.5l-1.4,0.3L50.9,10l-6,1.5l1.4,5.9L45,17.7L42,5.2L43.3,4.9z
				"/>
			<path class="st0" d="M64.4,1.4l0.1,1.2l-6.3,0.6l0.4,4.3L63.2,7l0.1,1.2l-4.5,0.5l0.5,4.9l6.6-0.7l0.1,1.2l-8,0.8L56.7,2.1
				L64.4,1.4z"/>
			<path class="st0" d="M82.6,2l2.5,13.2L83.6,15l-0.8-4.1l-4.6-0.5l-1.6,3.9l-1.5-0.2l5.4-12.3L82.6,2z M78.7,9.2l3.9,0.4l-1.1-6.8
				h-0.2L78.7,9.2z"/>
			<path class="st0" d="M96.9,7.1c-0.4,1.4-1.9,2.1-3.5,2.7c0.3,1.2,0.9,2.7,1.9,4.5c0.7-0.6,1.5-1.9,1.9-2.8l1.1,0.6
				c-0.5,1.1-1.5,2.6-2.4,3.3c0.3,0.5,1.2,1.4,1.8,1.6l-0.3,1.2L97,18.1c-0.8-0.2-1.7-1.2-2.2-1.9c-1.1,0.7-2.3,0.9-3.9,0.5
				c-2.1-0.5-3.4-2.6-2.8-4.5c0.3-1.3,1.6-2.4,3.7-3c-0.4-1-0.5-2.3-0.2-3.2C92,4.5,93.5,3.8,95,4.2C96.4,4.5,97.3,5.6,96.9,7.1z
				 M91.3,15.6c1.1,0.3,2,0.1,2.8-0.4c-0.8-1.6-1.5-3.2-2.1-5c-1.3,0.4-2.3,1-2.6,2.4C89,14.1,90,15.2,91.3,15.6z M93,8.7
				c1.4-0.5,2.3-1.2,2.5-1.9s-0.2-1.4-0.9-1.6c-0.8-0.2-1.5,0.3-1.7,1.1C92.7,6.9,92.8,7.7,93,8.7z"/>
			<path class="st0" d="M112.2,10.4l-0.5,1.1L106,9.1l-1.7,4l4.2,1.8L108,16l-4.2-1.8l-2.3,5.6l-1.3-0.5l4.9-11.8L112.2,10.4z"/>
		</g>
	</g>
	<g>
		<path class="st0" d="M7.4,32.6c2.2,0,3.8,1.1,3.8,3.2c0,1.5-0.7,2.4-2.2,2.9l0,0c1.6,0.4,2.5,1.8,2.5,3.2c0,2.3-1.7,3.4-4.6,3.4
			H2.8V32.6H7.4z M6.6,38.1c1.7,0,3.1-0.6,3.1-2.2c0-1.5-0.9-2.1-2.4-2.1H4.2v4.3H6.6z M7,44.2c1.9,0,3.1-0.7,3.1-2.3
			c0-1.8-1.6-2.6-3.3-2.6H4.2v4.9C4.2,44.2,7,44.2,7,44.2z"/>
		<path class="st0" d="M23.2,32.6v1.2h-6.3v4.3h4.5v1.2h-4.5v4.9h6.7v1.2h-8.1V32.6H23.2z"/>
		<path class="st0" d="M34.5,35.6l-1.3,0.3c-0.4-1.4-1.5-2.2-3-2.2c-1.6,0-2.4,0.7-2.4,2c0,1,1,1.6,2.5,2.2c2.4,0.9,4.7,1.7,4.7,4
			c0,2.6-1.8,3.8-4.3,3.8c-2.2,0-3.7-1.1-4.6-3.3l1.3-0.5c0.6,1.7,1.8,2.6,3.4,2.6c1.5,0,2.8-0.7,2.8-2.3c0-1.5-1.5-2.1-3.5-2.8
			c-2.2-0.8-3.8-1.6-3.8-3.5c0-2,1.7-3.3,3.9-3.3C32.3,32.5,33.8,33.6,34.5,35.6z"/>
		<path class="st0" d="M46.4,32.6v1.2h-3.9v11.6h-1.4V33.8h-3.9v-1.2H46.4z"/>
		<path class="st0" d="M60,32.6c3.8,0,5.8,2.6,5.8,6.4c0,3.7-2,6.4-5.8,6.4h-3.5V32.6H60z M59.9,44.2c3.1,0,4.4-2,4.4-5.2
			c0-3.5-1.6-5.2-4.4-5.2h-2v10.4C57.9,44.2,59.9,44.2,59.9,44.2z"/>
		<path class="st0" d="M73.6,32.6c2.5,0,4.3,1,4.3,3.4c0,1.6-0.9,2.8-2.6,3.3l2.7,6.1h-1.6l-2.6-5.8h-3v5.8h-1.4V32.6H73.6z
			 M73.5,38.4c1.9,0,3-0.7,3-2.3s-1-2.2-3-2.2h-2.6v4.6L73.5,38.4L73.5,38.4z"/>
		<path class="st0" d="M89.7,32.6v1.2h-6.3v4.3h4.5v1.2h-4.5v4.9h6.7v1.2H82V32.6H89.7z"/>
		<path class="st0" d="M101,35.6l-1.3,0.3c-0.4-1.4-1.5-2.2-3-2.2c-1.6,0-2.4,0.7-2.4,2c0,1,1,1.6,2.5,2.2c2.4,0.9,4.7,1.7,4.7,4
			c0,2.6-1.8,3.8-4.3,3.8c-2.2,0-3.7-1.1-4.6-3.3l1.3-0.5c0.6,1.7,1.8,2.6,3.4,2.6c1.5,0,2.8-0.7,2.8-2.3c0-1.5-1.5-2.1-3.5-2.8
			c-2.2-0.8-3.8-1.6-3.8-3.5c0-2,1.7-3.3,3.9-3.3C98.8,32.5,100.3,33.6,101,35.6z"/>
		<path class="st0" d="M113.1,35.6l-1.3,0.3c-0.4-1.4-1.5-2.2-3-2.2c-1.6,0-2.4,0.7-2.4,2c0,1,1,1.6,2.5,2.2c2.4,0.9,4.7,1.7,4.7,4
			c0,2.6-1.8,3.8-4.3,3.8c-2.2,0-3.7-1.1-4.6-3.3l1.3-0.5c0.6,1.7,1.8,2.6,3.4,2.6c1.5,0,2.8-0.7,2.8-2.3c0-1.5-1.5-2.1-3.5-2.8
			c-2.2-0.8-3.8-1.6-3.8-3.5c0-2,1.7-3.3,3.9-3.3C110.9,32.5,112.4,33.6,113.1,35.6z"/>
		<path class="st0" d="M125.1,32.6v1.2h-6.3v4.3h4.5v1.2h-4.5v4.9h6.7v1.2h-8.1V32.6H125.1z"/>
		<path class="st0" d="M132.4,32.6c3.8,0,5.8,2.6,5.8,6.4c0,3.7-2,6.4-5.8,6.4h-3.5V32.6H132.4z M132.4,44.2c3.1,0,4.4-2,4.4-5.2
			c0-3.5-1.6-5.2-4.4-5.2h-2v10.4C130.4,44.2,132.4,44.2,132.4,44.2z"/>
		<path class="st0" d="M50.7,57.5l-1.4,0.3c-0.6-1.9-1.6-2.8-3.2-2.8c-2.5,0-3.7,2.1-3.7,5.4c0,3.5,1.4,5.4,3.7,5.4
			c2.1,0,3.1-1.3,3.1-2.8v-1.1h-2.9v-1.2h4.3v6.2h-1.2v-1.2l0,0C48.8,66.6,47.5,67,46,67c-3.6,0-5-2.9-5-6.6c0-4.2,1.9-6.6,5-6.6
			C48.5,53.8,50,55,50.7,57.5z"/>
		<path class="st0" d="M56.2,53.9V63c0,1.7,1.3,2.7,3.1,2.7s3.1-1.1,3.1-2.7v-9.1h1.4v9c0,2.5-1.9,4-4.5,4s-4.5-1.5-4.5-4v-9
			C54.8,53.9,56.2,53.9,56.2,53.9z"/>
		<path class="st0" d="M76.1,53.9v1.2h-6.3v4.3h4.5v1.2h-4.5v4.9h6.7v1.2h-8.1V53.9H76.1z"/>
		<path class="st0" d="M87.4,56.9l-1.3,0.3c-0.4-1.4-1.5-2.2-3-2.2c-1.6,0-2.4,0.7-2.4,2c0,1,1,1.6,2.5,2.2c2.4,0.9,4.7,1.7,4.7,4
			c0,2.6-1.8,3.8-4.3,3.8c-2.2,0-3.7-1.1-4.6-3.3l1.3-0.5c0.6,1.7,1.8,2.6,3.4,2.6c1.5,0,2.8-0.7,2.8-2.3c0-1.5-1.5-2.1-3.5-2.8
			c-2.2-0.8-3.8-1.6-3.8-3.5c0-2,1.7-3.3,3.9-3.3C85.2,53.8,86.7,54.9,87.4,56.9z"/>
		<path class="st0" d="M99.3,53.9v1.2h-3.9v11.6H94V55.2h-3.9V54L99.3,53.9L99.3,53.9z"/>
	</g>
</g>
</svg>
